<?xml version="1.0" ?><!DOCTYPE svg  PUBLIC '-//W3C//DTD SVG 1.1//EN'  'http://www.w3.org/Graphics/SVG/1.1/DTD/svg11.dtd'><svg height="2048px" style="shape-rendering:geometricPrecision; text-rendering:geometricPrecision; image-rendering:optimizeQuality; fill-rule:evenodd; clip-rule:evenodd" viewBox="0 0 2048 2048" width="2048px" xml:space="preserve" xmlns="http://www.w3.org/2000/svg" xmlns:xlink="http://www.w3.org/1999/xlink"><defs><style type="text/css">
   <![CDATA[
    .fil2 {fill:none}
    .fil0 {fill:none;fill-rule:nonzero}
    .fil1 {fill:#424242;fill-rule:nonzero}
   ]]>
  </style></defs><g id="Layer_x0020_1"><polyline class="fil0" points="704.608,546.147 704.041,545.778 712.729,532.404 721.416,519.029 "/><path class="fil0" d="M706.651 547.642c-0.00236221,-0.0011811 0.127559,0.0519685 0.0307087,-0.0472441l8.8441 -13.265 2.79921 -4.19882 4.90512 -7.35827 1.17047 -1.75512 -0.080315 -0.0531496 -0.464174 -0.309449"/><path class="fil1" d="M1570.56 507.806c1.85079,1.86142 3.71339,3.73347 5.26418,5.41536l-0.034252 0.0307087c63.2693,68.3752 113.988,148.459 148.498,236.584 33.2859,85.004 51.5658,177.483 51.5658,274.153 0,95.4591 -17.8417,186.783 -50.3422,270.879 -33.7264,87.2694 -83.2194,166.612 -144.915,234.591l-0.209055 0.536221c-70.1209,76.9406 -156.045,139.362 -252.626,182.072 -92.902,41.0823 -195.632,63.9331 -303.613,63.9331 -207.592,0 -395.59,-84.2056 -531.689,-220.308 -136.1,-136.103 -220.303,-324.108 -220.303,-531.703 0,-97.6572 18.5835,-190.99 52.4752,-276.623 35.1083,-88.7103 86.6953,-169.175 151.106,-237.636l0.00590552 0.00590552c3.9378,-4.37835 38.4414,-41.1 91.206,-44.6929l1.93819 0c25.8425,1.4941 52.0607,7.86851 77.8843,17.491 25.454,9.48544 50.3847,22.0429 74.0871,36.1181l0.562205 0.375591 2.44016 1.62638 0.487796 0.270473c97.7942,59.0457 175.38,144.554 175.605,144.801l10.5083 11.5146 -11.3209 10.7976c-47.4225,45.2351 -132.96,144.364 -209.738,251.254 -56.6918,78.926 -108.462,161.912 -136.172,230.067 -51.7536,127.03 -64.5119,215.368 -64.9004,270.796 15.4063,-37.7197 37.9016,-78.3178 63.802,-118.831 70.3087,-109.98 166.251,-220.477 210.979,-268.299l0 -0.0625985c18.6969,-19.8496 44.4178,-46.4835 72.3237,-75.0686 32.4803,-33.2717 67.9229,-69.1808 98.6115,-100.023 48.9638,-49.6181 77.9115,-78.5422 77.9965,-78.6272l11.0835 -11.0823 11.2913 10.8945c11.2311,10.8366 22.2626,21.5256 33.1122,32.1284 10.6984,10.4563 21.1382,20.752 31.2886,30.913 46.7528,46.4575 87.6367,88.6808 122.749,125.904 34.6488,36.7335 64.2745,69.2788 88.4516,96.3036l0.0625985 0c24.5386,27.5563 60.1607,69.2493 92.1768,107.798 28.5319,34.3524 53.6965,65.6445 64.7752,81.2682 33.7323,47.3055 57.9615,89.8973 75.267,125.652 8.33268,17.2134 15.0862,32.9988 20.5465,47.0776 4.69607,-63.0863 -3.10512,-120.744 -20.5075,-177.35 -23.8819,-77.6847 -65.9138,-153.924 -118.611,-239.468 -105.611,-171.45 -277.855,-338.939 -278.352,-339.425l-11.8394 -11.5878 12.0898 -11.4118c78.443,-74.0469 149.587,-122.619 204.599,-153.782 55.5945,-31.4929 94.9536,-45.378 109.068,-49.839l3.8126 -0.687402c18.1075,-1.18937 37.5378,0.713386 56.5607,8.113 16.1551,6.28347 31.8414,16.4799 45.9225,32.0197l0.0625985 0c1.78228,1.97953 3.3437,3.54922 4.90748,5.12244z"/><polygon class="fil1" points="626.017,425.325 626.236,425.172 626.204,425.14 "/><path class="fil1" d="M625.453 425.724l0.563386 -0.399213c-0.863386,0.843308 -1.7941,1.71496 -3.34843,2.74961l-20.374 -24.3118c2.35158,-2.46496 5.22402,-5.04922 8.10119,-7.41851 3.33544,-2.74607 6.61654,-5.1567 9.06497,-6.73465l0.00944883 0.0153543c59.3245,-38.5784 123.389,-68.152 191.71,-87.9969 67.2154,-19.5248 138.358,-29.628 212.964,-29.628 69.2197,0 136.498,9.47127 200.491,27.1571 66.006,18.2421 128.387,45.2445 185.673,79.6217l-0.00472441 0.00826772c5.31851,3.12638 15.711,10.0984 25.6465,18.2138 7.23426,5.90906 14.3705,12.4878 19.591,18.8669l-24.1866 20.8122c-0.180709,-0.198425 -0.377953,-0.370866 -0.558662,-0.56693l-0.00354331 0.00354331 -0.0366142 -0.0448819c-96.919,-104.769 -396.598,136.313 -397.465,137.006l-9.74883 7.78465 -9.93898 -7.65945c-53.7815,-41.4426 -105.284,-76.2296 -152.475,-103.093 -46.2721,-26.3398 -88.2969,-44.9847 -124.108,-54.7063l0 -0.0625985c-25.1055,-6.88583 -46.6843,-8.28662 -64.5119,-6.45355 -21.4323,2.20512 -36.9414,8.96103 -46.2733,16.2201l0.00236221 0.00236221 -0.0318898 0.0307087 -0.00590552 -0.00590552 -0.258662 0.201969 -0.451181 0.350788 -0.0354331 0.0366142z"/><path class="fil1" d="M625.376 425.775c-0.429922,0.309449 -0.262205,0.190158 0.034252,-0.0200788l-0.00354331 -0.00354331 -0.0307087 0.0236221z"/></g><rect class="fil2" height="2048" width="2048"/></svg>